<?xml version="1.0" encoding="utf-8"?>
<!-- Generator: Adobe Illustrator 27.5.0, SVG Export Plug-In . SVG Version: 6.00 Build 0)  -->
<svg version="1.1" id="Layer_1" xmlns="http://www.w3.org/2000/svg" xmlns:xlink="http://www.w3.org/1999/xlink" x="0px" y="0px"
	 viewBox="0 0 128 128" style="enable-background:new 0 0 128 128;" xml:space="preserve">
<style type="text/css">
	.st0{fill:#A0D7CF;}
</style>
<path class="st0" d="M71.5,64l38.1-38.1c2.7-2.7,3.5-6.7,2-10.3c-1.5-3.5-4.9-5.8-8.7-5.8H24.4c-3.8,0-7.2,2.3-8.7,5.8
	c-1.5,3.5-0.7,7.6,2,10.3L55.8,64L17.7,102c-2.7,2.7-3.5,6.7-2,10.3c1.5,3.5,4.9,5.8,8.7,5.8H103c3.8,0,7.2-2.3,8.7-5.8
	c1.5-3.5,0.7-7.6-2-10.3L71.5,64z M99.4,20.7L63.7,56.4L28,20.7H99.4z M28,107.2l35.7-35.7l35.7,35.7H28z"/>
</svg>
